<svg xmlns="http://www.w3.org/2000/svg" viewBox="0 0 512 512">
  <defs>
    <linearGradient id="grad" x1="0%" y1="0%" x2="100%" y2="100%">
      <stop offset="0%" style="stop-color:#38bdf8;stop-opacity:1" />
      <stop offset="100%" style="stop-color:#a855f7;stop-opacity:1" />
    </linearGradient>
  </defs>
  <rect width="512" height="512" rx="128" fill="url(#grad)"/>
  <g fill="white">
    <!-- Sparkle/star shape representing orchestration -->
    <path d="M256 96 l20 60 60 20 -60 20 -20 60 -20 -60 -60 -20 60 -20z" opacity="0.9"/>
    <path d="M256 276 l16 48 48 16 -48 16 -16 48 -16 -48 -48 -16 48 -16z" opacity="0.7"/>
    <path d="M360 200 l12 36 36 12 -36 12 -12 36 -12 -36 -36 -12 36 -12z" opacity="0.5"/>
    <path d="M152 280 l10 30 30 10 -30 10 -10 30 -10 -30 -30 -10 30 -10z" opacity="0.5"/>
  </g>
</svg>

